<svg width="34" height="38" viewBox="0 0 34 38" fill="none" xmlns="http://www.w3.org/2000/svg">
<g clip-path="url(#clip0_153_300)">
<path d="M6.13574 20.72V18.46C12.8918 17.5423 19.7049 17.0979 26.5242 17.13C26.5242 17.73 26.5242 18.34 26.4635 18.95C28.4019 18.099 30.4389 17.4877 32.5285 17.13C31.1967 13.722 28.77 10.8412 25.6216 8.93087C22.4732 7.02052 18.7776 6.1864 15.1032 6.55683C11.4289 6.92727 7.97928 8.48172 5.28515 10.9811C2.59101 13.4804 0.801557 16.7863 0.192059 20.39L6.13574 20.72Z" fill="#FDC305"/>
<path d="M27.535 24.23C26.3625 25.51 26.13 25.43 26.13 27.68C26.13 28.59 26.13 32.58 26.13 36.86C28.4473 35.346 30.3497 33.2879 31.6673 30.8694C32.9849 28.4509 33.6766 25.7474 33.6809 23C33.6675 21.9591 33.5593 20.9216 33.3574 19.9C31.2631 21.1295 29.3108 22.5814 27.535 24.23Z" fill="#FDC305"/>
<path d="M6.42888 25.72C6.42888 25.72 2.59783 24.28 1.18267 23.89C0.795591 23.7693 0.400387 23.6757 0 23.61C0.109569 26.496 0.976046 29.3041 2.51433 31.7586C4.05261 34.2131 6.20979 36.2296 8.77401 37.61L6.42888 25.72Z" fill="#FDC305"/>
<path d="M26.5747 17.12C26.6158 11.5986 26.1421 6.08528 25.1596 0.65C25.1596 0.65 25.018 -0.64 24.2599 0.41C23.6645 1.65814 23.2558 2.98539 23.0469 4.35C18.7426 4.07577 14.4221 4.18957 10.1386 4.69C9.34007 2 7.93502 0.75 7.25776 1C6.58051 1.25 6.52996 4.31 6.52996 4.31L6.19639 18.41C12.95 17.506 19.7597 17.0749 26.5747 17.12Z" fill="#F06351"/>
<path d="M12.5444 14C12.5444 13.91 13.5552 14.68 13.9697 14.92C14.3841 15.16 14.5863 15.34 14.5863 15.51C14.5863 15.68 14.3134 15.85 13.9495 15.85C13.5856 15.85 13.0296 15.73 12.9386 15.58H13.8888H14.1819C13.5661 15.1294 13.0152 14.5978 12.5444 14Z" fill="black"/>
<path d="M20.1054 14.11L19.0036 15.44C19.0036 15.5 18.8318 15.79 19.1856 15.74C19.6042 15.6783 20.0168 15.5812 20.4188 15.45C20.53 15.45 20.4895 15.26 20.3076 15.28C20.1256 15.3 19.6101 15.33 19.2967 15.39L20.1458 14.13C20.1458 14.13 20.2166 14 20.1054 14.11Z" fill="black"/>
<path d="M16.9314 20.2C17.4 19.9958 17.7873 19.6443 18.0332 19.2C18.3162 18.55 18.0332 18.29 17.5884 18.2C16.9798 18.0902 16.3517 18.2116 15.8296 18.54C15.4354 18.9 15.4859 19.26 15.7791 19.54C16.1342 19.8062 16.5212 20.0279 16.9314 20.2Z" fill="black"/>
<path d="M16.5271 21.45C16.4138 21.6785 16.2558 21.8825 16.0621 22.05C15.7742 22.2791 15.4203 22.4122 15.0513 22.43C14.5194 22.472 13.9905 22.3189 13.5653 22C13.3654 21.8808 13.1848 21.7324 13.0296 21.56C12.928 21.4491 12.804 21.3605 12.6657 21.3C12.6657 21.3 13.4238 25.4 15.2635 26.05C17.1032 26.7 17.4267 25.3 17.4874 24.92C17.5482 23.7851 17.2591 22.6588 16.6585 21.69C16.6383 21.38 16.6282 21.58 16.5271 21.45Z" fill="#F06351"/>
<path d="M14.8693 22.59C14.3996 22.5247 13.9483 22.3651 13.5433 22.1209C13.1383 21.8767 12.788 21.5531 12.5141 21.17C12.5006 21.157 12.4899 21.1414 12.4827 21.1242C12.4754 21.1071 12.4716 21.0886 12.4716 21.07C12.4716 21.0514 12.4754 21.0329 12.4827 21.0158C12.4899 20.9986 12.5006 20.983 12.5141 20.97C12.5273 20.9567 12.543 20.9461 12.5603 20.9389C12.5777 20.9317 12.5963 20.928 12.6152 20.928C12.634 20.928 12.6526 20.9317 12.67 20.9389C12.6873 20.9461 12.7031 20.9567 12.7162 20.97C13.2265 21.6642 13.9929 22.1313 14.8491 22.27C15.1844 22.245 15.5087 22.1413 15.7953 21.9674C16.0819 21.7934 16.3224 21.5544 16.4968 21.27L16.6383 21.08L16.7393 21.29C16.7393 21.29 17.1134 22.05 17.7502 22.09C18.387 22.13 18.8116 21.68 19.3776 20.81C19.3908 20.7967 19.4065 20.7861 19.4239 20.7789C19.4412 20.7717 19.4599 20.768 19.4787 20.768C19.4975 20.768 19.5162 20.7717 19.5335 20.7789C19.5509 20.7861 19.5666 20.7967 19.5798 20.81C19.6124 20.8306 19.6359 20.8629 19.6453 20.9C19.6547 20.9372 19.6493 20.9766 19.6303 21.01C18.9834 22.01 18.3466 22.45 17.73 22.41C17.4954 22.3763 17.2717 22.2904 17.0756 22.1587C16.8795 22.0271 16.7162 21.8531 16.5978 21.65C16.399 21.9245 16.1405 22.1514 15.8414 22.3141C15.5423 22.4767 15.2101 22.571 14.8693 22.59Z" fill="black"/>
<path d="M26.5242 18.92C24.7092 20.5437 22.9976 22.277 21.3993 24.11C19.8109 25.9361 18.0168 27.5768 16.052 29C15.8296 28.47 14.4144 27.49 14.4144 27.49C14.4144 27.49 11.2505 25.35 9.17834 23.67C8.0605 22.7373 7.00374 21.7353 6.01444 20.67L3.99278 20.56C6.91426 24.7655 11.1901 27.8676 16.1227 29.36C16.9921 29.22 19.4282 27.5 21.2477 26.1C23.3895 24.2819 25.3961 22.3134 27.252 20.21C27.7599 19.621 28.1509 18.9425 28.4043 18.21C27.2924 18.6 26.5242 18.92 26.5242 18.92Z" fill="#F06351"/>
</g>
<defs>
<clipPath id="clip0_153_300">
<rect width="33.6809" height="37.61" fill="white"/>
</clipPath>
</defs>
</svg>
