<svg width="34" height="38" fill="none" xmlns="http://www.w3.org/2000/svg"><g clip-path="url(#a)"><path d="M6.136 20.72v-2.26a146.362 146.362 0 0 1 20.388-1.33c0 .6 0 1.21-.06 1.82a26.002 26.002 0 0 1 6.065-1.82 16.714 16.714 0 0 0-6.907-8.2 16.998 16.998 0 0 0-10.519-2.373 16.933 16.933 0 0 0-9.818 4.424A16.617 16.617 0 0 0 .192 20.39l5.944.33ZM27.535 24.23c-1.172 1.28-1.405 1.2-1.405 3.45v9.18a16.708 16.708 0 0 0 5.537-5.99A16.5 16.5 0 0 0 33.681 23a17.125 17.125 0 0 0-.324-3.1 33.44 33.44 0 0 0-5.822 4.33ZM6.429 25.72s-3.831-1.44-5.246-1.83A8.712 8.712 0 0 0 0 23.61c.11 2.886.976 5.694 2.514 8.149a16.757 16.757 0 0 0 6.26 5.851L6.429 25.72Z" fill="#FDC305"/><path d="M26.575 17.12A88.867 88.867 0 0 0 25.16.65s-.142-1.29-.9-.24a14.11 14.11 0 0 0-1.213 3.94 71.867 71.867 0 0 0-12.908.34C9.34 2 7.935.75 7.258 1c-.677.25-.728 3.31-.728 3.31l-.334 14.1a146.306 146.306 0 0 1 20.379-1.29Z" fill="#F06351"/><path d="M12.544 14c0-.09 1.011.68 1.426.92.414.24.616.42.616.59 0 .17-.273.34-.636.34-.364 0-.92-.12-1.011-.27H14.182A8.392 8.392 0 0 1 12.544 14ZM20.105 14.11l-1.101 1.33c0 .06-.172.35.182.3a7.5 7.5 0 0 0 1.233-.29c.111 0 .07-.19-.111-.17-.182.02-.698.05-1.011.11l.849-1.26s.07-.13-.04-.02ZM16.931 20.2a2.315 2.315 0 0 0 1.102-1c.283-.65 0-.91-.445-1a2.479 2.479 0 0 0-1.758.34c-.395.36-.344.72-.05 1 .354.266.741.488 1.151.66Z" fill="#000"/><path d="M16.527 21.45a1.922 1.922 0 0 1-.465.6 1.76 1.76 0 0 1-1.01.38 2.19 2.19 0 0 1-1.487-.43c-.2-.12-.38-.268-.535-.44-.102-.11-.226-.2-.364-.26 0 0 .758 4.1 2.598 4.75 1.84.65 2.163-.75 2.223-1.13a5.563 5.563 0 0 0-.828-3.23c-.02-.31-.03-.11-.132-.24Z" fill="#F06351"/><path d="M14.87 22.59a3.502 3.502 0 0 1-1.327-.47 3.463 3.463 0 0 1-1.06-.996.138.138 0 0 1 .031-.154.142.142 0 0 1 .202 0 3.301 3.301 0 0 0 2.133 1.3 2.13 2.13 0 0 0 .946-.303c.287-.174.527-.413.702-.697l.141-.19.101.21s.374.76 1.011.8c.637.04 1.062-.41 1.628-1.28a.141.141 0 0 1 .155-.031.141.141 0 0 1 .047.031.149.149 0 0 1 .05.2c-.647 1-1.283 1.44-1.9 1.4a1.575 1.575 0 0 1-1.132-.76 2.277 2.277 0 0 1-.757.664c-.299.163-.63.257-.972.276Z" fill="#000"/><path d="M26.524 18.92a58.922 58.922 0 0 0-5.125 5.19A31.848 31.848 0 0 1 16.052 29c-.222-.53-1.638-1.51-1.638-1.51s-3.163-2.14-5.236-3.82a34.35 34.35 0 0 1-3.164-3l-2.021-.11a22.8 22.8 0 0 0 12.13 8.8c.87-.14 3.305-1.86 5.125-3.26a58.463 58.463 0 0 0 6.004-5.89 6.133 6.133 0 0 0 1.152-2c-1.112.39-1.88.71-1.88.71Z" fill="#F06351"/></g><defs><clipPath id="a"><path fill="#fff" d="M0 0h33.681v37.61H0z"/></clipPath></defs></svg>