<svg width="58" height="62" viewBox="0 0 58 62" fill="none" xmlns="http://www.w3.org/2000/svg">
<path d="M54.0156 28.6325H4.03096C2.27657 28.6325 0.849411 27.2144 0.849411 25.4709V15.9989C0.849411 14.2554 2.27657 12.8367 4.03096 12.8367H54.0149C55.7687 12.8367 57.1953 14.2554 57.1953 15.9989V25.4715C57.1959 27.2144 55.7693 28.6325 54.0156 28.6325ZM4.03096 15.2598C3.62755 15.2598 3.28691 15.5984 3.28691 15.9989V25.4715C3.28691 25.8786 3.62085 26.21 4.03096 26.21H54.0149C54.4244 26.21 54.7578 25.8786 54.7578 25.4715V15.9989C54.7578 15.5978 54.4171 15.2598 54.0149 15.2598H4.03096Z" fill="white"/>
<path d="M47.0447 61.0821H10.999C7.62182 61.0821 4.87415 58.3512 4.87415 54.9933V27.421C4.87415 26.7523 5.42015 26.2095 6.0929 26.2095C6.76565 26.2095 7.31165 26.7523 7.31165 27.421V54.9933C7.31165 57.0148 8.9661 58.6589 10.999 58.6589H47.0447C49.077 58.6589 50.7308 57.0148 50.7308 54.9933V27.421C50.7308 26.7523 51.2768 26.2095 51.9496 26.2095C52.6223 26.2095 53.1683 26.7523 53.1683 27.421V54.9933C53.1683 58.3512 50.4213 61.0821 47.0447 61.0821Z" fill="white"/>
<path d="M29.0225 61.0821C28.3498 61.0821 27.8038 60.5399 27.8038 59.8705V27.421C27.8038 26.7523 28.3498 26.2095 29.0225 26.2095C29.6953 26.2095 30.2413 26.7523 30.2413 27.421V59.8699C30.2413 60.5399 29.6959 61.0821 29.0225 61.0821Z" fill="white"/>
<path d="M13.8113 15.2556C9.99661 13.2008 8.57311 8.44415 10.6383 4.65133C12.7022 0.860334 17.4864 -0.555385 21.303 1.4958C27.117 4.6265 30.2565 13.3607 30.3869 13.7308L28.0877 14.5347C28.0585 14.4523 25.1256 6.30997 20.1433 3.62695C17.5078 2.21063 14.2062 3.18836 12.7821 5.80475C11.3567 8.42356 12.339 11.7069 14.9734 13.1251L13.8113 15.2556Z" fill="white"/>
<path d="M44.2313 15.2556L43.071 13.1244C44.3477 12.4369 45.2782 11.2974 45.6926 9.91559C46.1063 8.53318 45.9534 7.07324 45.2617 5.80534C44.5719 4.53622 43.4263 3.61179 42.0363 3.20046C40.6457 2.78913 39.1783 2.94058 37.9023 3.62694C32.9201 6.30935 29.9871 14.4517 29.9579 14.5341L27.6587 13.7302C27.7891 13.3601 30.928 4.62587 36.7421 1.49578C38.5897 0.501085 40.7182 0.281792 42.7316 0.877884C44.7468 1.47337 46.4061 2.81397 47.4061 4.65132C48.4073 6.48806 48.6285 8.60285 48.0289 10.6062C47.4287 12.6089 46.0801 14.2597 44.2313 15.2556Z" fill="white"/>
<path d="M51.9496 44.8567H6.0929C5.42015 44.8567 4.87415 44.3142 4.87415 43.6456C4.87415 42.9771 5.42015 42.4346 6.0929 42.4346H51.9496C52.6223 42.4346 53.1683 42.9771 53.1683 43.6456C53.1683 44.3142 52.6229 44.8567 51.9496 44.8567Z" fill="white"/>
</svg>
