<svg xmlns="http://www.w3.org/2000/svg">
<style>:root svg:not(:target) { display: none }</style>

<svg id="slim-programm" viewBox="0 0 36 50">
<path d="M28.2034 0H28.008C27.6778 0.187081 27.415 0.473924 27.2571 0.819588C26.968 1.37738 26.7453 1.96735 26.5937 2.57732C26.5612 2.76073 26.4688 2.92811 26.331 3.05315C26.1932 3.17818 26.0179 3.25377 25.8326 3.26804C25.2658 3.36597 24.7288 3.59243 24.2626 3.93012C23.7965 4.26781 23.4135 4.7078 23.1429 5.21649C22.7708 5.87697 22.4526 6.5665 22.1914 7.27835C21.4611 9.17526 20.9006 11.134 20.2114 13.0464C19.8874 13.9175 19.872 13.9175 18.8949 13.9175C17.7274 13.9175 17.8097 13.7371 17.7943 15.0258C17.7943 15.433 17.9177 15.6392 18.3497 15.6186C18.4834 15.6186 18.684 15.5515 18.7354 15.7268C18.7869 15.9021 18.612 15.9794 18.5091 16.0825C17.8994 16.7029 17.1276 17.1388 16.2823 17.3402C15.3051 17.6031 14.3074 17.8093 13.356 18.1289C10.9131 18.9485 8.65543 20.0928 6.89657 22.0309C5.86814 23.2347 5.04455 24.6001 4.45886 26.0722C2.57143 30.5258 1.656 35.2165 0.946286 39.9536C0.612 42.1753 0.375429 44.4072 0.195429 46.6546C0.102857 47.7577 0 48.8763 0 50H17.1411C17.1696 49.7731 17.1283 49.5429 17.0229 49.3402C16.858 48.9289 16.5901 48.5672 16.2451 48.29C15.9 48.0128 15.4895 47.8295 15.0531 47.7577C14.6931 47.6753 14.652 47.567 14.8731 47.2835C15.2338 46.801 15.5103 46.2607 15.6909 45.6856C16.5291 43.2062 16.8531 40.6186 17.2594 38.0567C17.4889 36.0999 18.0894 34.2051 19.0286 32.4742C19.7611 31.2002 20.7382 30.0842 21.9034 29.1907C22.3303 28.866 22.3457 28.866 22.4177 29.4175C22.4691 29.7835 22.4794 30.1598 22.5051 30.5309C22.6595 32.9662 22.6285 35.4097 22.4126 37.8402C22.2184 39.7242 22.1926 41.6217 22.3354 43.5103C22.5399 45.7029 22.9304 47.8739 23.5029 50H30.3429C30.2536 49.442 29.9973 48.9243 29.6078 48.5156C29.2184 48.1069 28.7143 47.8264 28.1623 47.7113C27.5177 47.6087 26.8587 47.6438 26.2286 47.8144C25.92 47.8866 25.7914 47.8144 25.7657 47.4794C25.5529 44.7505 25.7261 42.0051 26.28 39.3247C26.966 36.2304 27.4912 33.1025 27.8537 29.9536C27.9887 28.6819 28.3881 27.4528 29.0263 26.3454C29.6383 25.2526 30.1731 24.1186 30.7749 23.0206C31.0138 22.6214 31.1575 22.1723 31.195 21.7083C31.2325 21.2443 31.1626 20.7779 30.9909 20.3454C30.852 19.9794 30.7183 19.6082 30.5486 19.2577C30.0343 18.2526 29.52 17.2577 29.0469 16.2423C28.7949 15.7268 28.8514 15.6649 29.412 15.6495C30.2503 15.6495 30.2503 15.6495 30.2657 14.8041C30.2657 14.6907 30.2657 14.5773 30.2657 14.4639C30.2657 14.1082 30.132 13.9124 29.7514 13.9485C29.4943 13.9485 29.2371 13.9485 28.9697 13.9485C28.6149 13.9485 28.512 13.799 28.5994 13.433C28.7729 12.838 29.1142 12.306 29.5823 11.9009C30.0503 11.4958 30.6252 11.2349 31.2377 11.1495C32.3772 11.0505 33.5251 11.1252 34.6423 11.3711C34.7712 11.4118 34.9109 11.4001 35.0312 11.3383C35.1515 11.2766 35.2427 11.1699 35.2851 11.0412C35.4909 10.5258 35.7171 10.0103 35.9486 9.49484C36.001 9.40339 36.0242 9.29801 36.015 9.19293C36.0058 9.08785 35.9647 8.98812 35.8971 8.90722C34.2514 6.81443 32.4669 4.86082 30.0343 3.60825C29.9168 3.55754 29.8138 3.47814 29.7347 3.3773C29.6557 3.27646 29.6031 3.15738 29.5817 3.03093C29.444 2.29408 29.225 1.57487 28.9286 0.886598C28.7895 0.519904 28.5349 0.20865 28.2034 0V0Z" fill="black"/>
</svg>

<svg id="muscles-programm" viewBox="0 0 68 29">
<path d="M61.5591 2.87843C62.1364 1.95997 62.9036 1.17573 63.8091 0.578427C64.3091 0.228427 64.6091 0.228427 64.9091 0.878427C65.3091 1.82843 65.6591 2.82843 65.3591 3.87843C65.3045 4.05651 65.2942 4.24523 65.3291 4.4282C65.3639 4.61117 65.4429 4.78288 65.5591 4.92843C65.8591 5.32843 66.1091 5.72843 66.3591 6.07843C66.6994 6.51031 66.9201 7.02408 66.9991 7.5682C67.078 8.11231 67.0125 8.66763 66.8091 9.17843C66.6256 9.67433 66.5908 10.213 66.7091 10.7284C66.809 11.2234 66.809 11.7334 66.7091 12.2284C66.6687 12.5991 66.5187 12.9494 66.2782 13.2344C66.0377 13.5194 65.7177 13.7262 65.3591 13.8284C64.7196 13.9501 64.1488 14.3069 63.7591 14.8284C63.7119 14.9052 63.6457 14.9686 63.5669 15.0124C63.488 15.0562 63.3993 15.0789 63.3091 15.0784C62.7091 15.1784 61.2091 13.8284 61.2091 13.2284V12.9284C61.2591 11.1284 61.1591 10.9784 59.5091 10.2284C59.1638 10.1066 58.8544 9.90037 58.6091 9.62843C58.3091 9.22843 57.9091 9.27843 57.4591 9.42843C57.0091 9.57843 56.7591 9.87843 56.8091 10.3784C56.9599 11.5889 57.0101 12.8097 56.9591 14.0284C56.9624 14.1675 56.9966 14.3041 57.0591 14.4284C58.6091 16.6784 59.2091 19.3284 59.9591 21.8784C60.5591 23.8284 61.6591 24.8784 63.6591 25.0284C63.9792 25.054 64.2968 25.1041 64.6091 25.1784C65.02 25.2444 65.4017 25.4322 65.7048 25.7174C66.0078 26.0027 66.2183 26.3723 66.3091 26.7784C66.6591 27.8284 66.4591 28.0784 65.4091 28.0784H62.1591C61.7384 28.0997 61.3259 27.9562 61.0091 27.6784C60.5031 27.2514 59.9282 26.9132 59.3091 26.6784C58.6247 26.4258 58.0323 25.9728 57.6091 25.3784C57.0234 24.5602 56.3531 23.806 55.6091 23.1284C54.2091 21.6784 52.7091 20.2784 51.4091 18.7784C50.4195 17.7563 49.8486 16.4006 49.8091 14.9784C49.8091 14.5284 49.7091 14.3284 49.2091 14.5284C49.0594 14.6234 48.8864 14.6753 48.7091 14.6784C47.3091 14.6784 46.6091 15.5284 46.1091 16.7784C45.6591 17.8284 45.0591 18.8284 44.5091 19.8784C44.1972 20.5357 44.0269 21.2511 44.0091 21.9784C44.0091 23.1784 44.3091 23.5784 45.4091 23.9784C46.1091 24.2284 46.7591 24.4784 47.1091 25.1784C47.5091 25.9784 47.4091 26.1784 46.5591 26.2284H43.1591C42.9631 26.2478 42.7659 26.2052 42.5955 26.1065C42.425 26.0078 42.2899 25.8581 42.2091 25.6784L41.3091 24.1784C41.0438 23.7871 40.874 23.3389 40.8132 22.87C40.7524 22.4011 40.8024 21.9245 40.9591 21.4784C41.1755 20.6102 41.1926 19.7042 41.0091 18.8284C40.8831 18.2185 40.8939 17.5882 41.0409 16.9829C41.1879 16.3777 41.4674 15.8126 41.8591 15.3284C42.1591 14.9784 42.1591 14.8284 41.6591 14.7284C39.6146 14.2941 37.6325 13.6054 35.7591 12.6784C35.7459 12.6784 35.7331 12.6732 35.7238 12.6638C35.7144 12.6544 35.7091 12.6417 35.7091 12.6284C34.1091 12.0284 33.8091 12.1284 33.3591 13.7784C32.9591 15.1784 32.5591 16.5784 32.2591 18.0284C31.9091 19.6284 32.3091 21.1284 32.8091 22.6284C33.0091 23.2284 33.6091 23.1784 34.0591 23.3284C35.0591 23.6284 35.9091 24.0284 36.3091 25.0784C36.6591 25.8784 36.6091 25.9784 35.7591 25.9784C34.9091 25.9784 34.0591 25.9284 33.1591 25.9784C32.3997 25.9922 31.6584 25.7451 31.0591 25.2784C28.6591 23.6784 27.9591 21.2284 27.7591 18.5784C27.6591 16.9284 26.7591 15.6284 25.7091 14.3784C25.5091 14.1284 25.3091 14.0284 25.0091 14.2284C23.9359 14.8202 22.8153 15.3219 21.6591 15.7284C19.2462 16.5804 17.1289 18.1077 15.5591 20.1284C14.9729 20.8659 14.5933 21.746 14.4591 22.6784C14.3091 23.5784 14.5591 23.9784 15.4591 24.2284C16.3591 24.4784 16.8091 24.9784 16.9091 25.9284C16.9591 26.3284 16.8091 26.5284 16.4091 26.5284H12.3591C12.2266 26.519 12.0982 26.4778 11.9851 26.4081C11.8719 26.3385 11.7772 26.2425 11.7091 26.1284C11.081 25.3508 10.7449 24.3779 10.7591 23.3784C10.7329 21.6509 10.8837 19.9252 11.2091 18.2284C11.2759 17.7203 11.4656 17.2361 11.7618 16.8178C12.0581 16.3996 12.4519 16.06 12.9091 15.8284C15.8591 14.4284 17.4091 11.7784 18.8091 9.02843C19.1091 8.47843 18.8591 8.37843 18.3591 8.42843C16.9598 8.62269 15.634 9.17368 14.5091 10.0284C13.0362 11.1029 11.6487 12.2897 10.3591 13.5784C8.98394 14.9753 7.16046 15.8427 5.20911 16.0284C1.55911 16.2284 -0.140885 14.1784 0.00911497 10.8784C0.0426462 9.75323 0.466939 8.67482 1.20912 7.82843C1.46713 7.49393 1.81898 7.24392 2.21975 7.11033C2.62052 6.97674 3.05201 6.96563 3.45912 7.07843C4.20912 7.27843 4.40911 7.67843 4.10911 8.42843C3.95911 8.72843 3.75911 8.97843 3.60911 9.27843C3.39341 9.58491 3.22488 9.92198 3.10911 10.2784C2.55911 11.7784 3.30911 12.8284 4.85911 12.9784C6.50911 13.1284 7.85912 12.4284 9.10912 11.4284C10.6151 10.2226 11.9595 8.82775 13.1091 7.27843C13.9687 6.14713 15.0512 5.20407 16.2895 4.50749C17.5279 3.81091 18.8959 3.37559 20.3091 3.22843C21.4591 3.07843 22.4591 2.57843 23.5591 2.27843C25.6164 1.65123 27.7586 1.34761 29.9091 1.37843C30.9052 1.41991 31.8974 1.23172 32.8091 0.828427C35.2591 -0.171573 37.8091 -0.171573 40.3591 0.328427C42.3591 0.728427 44.3591 1.22843 46.3091 1.72843C47.4696 1.94467 48.6629 1.91057 49.8091 1.62843C52.0034 1.07219 54.248 0.737189 56.5091 0.628427C57.9904 0.55636 59.4667 0.848196 60.8091 1.47843C61.8091 1.92843 61.8091 1.92843 61.5591 2.87843Z" fill="black"/>
</svg>

<svg id="arrow" viewBox="0 0 24 12">
<line y1="6" x2="18" y2="6" stroke="currentColor" stroke-width="2"/>
<path d="M24 6L17.25 11.1962L17.25 0.803848L24 6Z" fill="currentColor"/>
</svg>

<svg id="arrow-hover" viewBox="0 0 32 12">
<line y1="6" x2="26" y2="6" stroke="currentColor" stroke-width="2"/>
<path d="M32 6L25.25 11.1962L25.25 0.803848L32 6Z" fill="currentColor"/>
</svg>

<svg id="leaf" viewBox="0 0 30 32">
<g clip-path="url(#clip0_130_911)">
<path d="M27.8438 2.767C27.7434 2.317 27.3647 2 26.9325 2C26.9306 2 26.9288 2 26.9269 2C21.9891 2.033 9.98156 2.916 5.13375 10.38C2.61562 14.258 2.39906 19.293 4.48969 25.345C4.50562 25.392 4.53844 25.424 4.56 25.467C3.81281 27.44 3.52312 28.753 3.51562 28.79C3.40687 29.33 3.73031 29.862 4.23656 29.978C4.30219 29.993 4.36781 30 4.43344 30C4.86562 30 5.25469 29.679 5.34937 29.21C5.36906 29.108 7.75781 18.837 16.2028 12.832C16.6341 12.526 16.7503 11.905 16.4625 11.445C16.1747 10.985 15.5934 10.86 15.1622 11.168C10.3734 14.573 7.42406 19.176 5.68969 22.824C4.44844 18.246 4.77375 14.447 6.67594 11.519C10.4194 5.755 19.2984 4.365 24.6581 4.071C23.505 5.872 22.245 9.174 22.245 15C22.245 18.12 21.4153 20.522 19.7803 22.14C17.1591 24.731 12.9009 24.974 9.78656 24.724C9.26906 24.679 8.82 25.095 8.78062 25.646C8.74125 26.196 9.12844 26.676 9.64406 26.718C10.2675 26.769 10.9331 26.8 11.625 26.8C14.7956 26.8 18.4941 26.137 21.0544 23.606C23.0888 21.595 24.12 18.7 24.12 15.001C24.12 5.902 27.3356 3.905 27.3516 3.896C27.7416 3.687 27.9459 3.219 27.8438 2.767Z" fill="white"/>
</g>
<defs>
<clipPath id="clip0_130_911">
<rect width="30" height="32" fill="none"/>
</clipPath>
</defs>
</svg>

<svg id="water" viewBox="0 0 30 32" >
<path d="M13.375 2C11.7437 2 10.475 3.35937 10.475 5.08125C10.475 6.80312 11.7437 8.1625 13.375 8.1625C15.0063 8.1625 16.275 6.80312 16.275 5.08125C16.275 3.35937 15.0063 2 13.375 2ZM13.375 3.17812C14.3719 3.17812 15.0969 4.02094 15.0969 5.08125C15.0969 6.07812 14.3084 6.98438 13.375 6.98438C12.3781 6.98438 11.6531 6.14156 11.6531 5.08125C11.6531 4.08437 12.4325 3.17812 13.375 3.17812ZM2.5 26.7406C2.5 27.9188 2.90781 28.9156 3.85938 29.7313C4.85625 30.5831 6.03438 30.5106 6.03438 30.5106H25.0656C25.845 30.5106 26.8781 30.13 27.6937 29.0606C28.5366 28.0638 28.4822 26.7044 28.4822 26.7044V9.48563C28.4822 9.05063 28.3734 8.8875 27.7391 8.8875C27.1047 8.8875 27.0503 9.15938 27.0503 9.47656V26.6953C27.0322 26.9944 26.9778 27.7828 26.3072 28.4172C25.5731 29.0425 24.8572 28.9609 24.8572 28.9609C24.8572 28.9609 6.73219 28.9609 5.82594 28.9338C5.48156 28.8703 4.91969 28.7434 4.37594 28.0275C3.86844 27.3025 3.96812 26.3962 3.96812 26.3962V9.1775C3.96812 8.71531 3.7325 8.54313 3.24313 8.54313C2.75375 8.54313 2.5 8.71531 2.5 9.12313V26.7406ZM18.8125 10.4281C17.725 10.6637 16.6375 10.8088 14.5531 12.7844C12.4688 14.7781 10.9281 14.6875 9.3875 14.5969C7.84688 14.5063 6.21563 13.0563 5.94375 12.6938C5.60844 12.3403 5.0375 12.5759 4.85625 12.8116C4.70219 13.0472 4.70219 13.455 4.965 13.8084C6.23375 14.9866 7.41188 15.8928 9.6775 16.0741C11.9431 16.2916 14.1181 15.2675 15.5681 13.8084C17.0181 12.3584 17.7431 12.0866 18.8306 11.9053C21.4587 11.4884 22.9994 12.5216 23.9056 13.1741C24.9025 14.2616 25.1744 13.9534 25.4462 13.6453C25.99 12.9294 25.2197 12.3766 24.3588 11.7422C22.5463 10.5641 20.8244 10.1109 18.8306 10.4734L18.8125 10.4281ZM9.75 17.5875C8.57188 17.5875 7.66562 18.5844 7.66562 19.8531C7.66562 21.1219 8.57188 22.1188 9.75 22.1188C10.9281 22.1188 11.8344 21.1219 11.8344 19.8531C11.8344 18.5844 10.9281 17.5875 9.75 17.5875ZM21.5312 18.3669C19.9906 18.3669 18.7219 19.7262 18.7219 21.3575C18.7219 22.9888 19.9906 24.3481 21.5312 24.3481C23.0719 24.3481 24.3406 22.9888 24.3406 21.3575C24.3406 19.7262 23.0719 18.3669 21.5312 18.3669ZM21.5312 19.8169C22.3288 19.8169 22.9813 20.5147 22.9813 21.3575C22.9813 22.2184 22.3288 22.8981 21.5312 22.8981C20.7337 22.8981 20.0812 22.2003 20.0812 21.3575C20.0812 20.4966 20.7337 19.8169 21.5312 19.8169Z" fill="white"/>
</svg>

<svg id="utensil" viewBox="0 0 30 32">
<path fill-rule="evenodd" clip-rule="evenodd" d="M21.1173 1.07615C21.491 0.921369 21.9211 1.00692 22.2071 1.29292C23.1156 2.20142 24.3038 4.17065 25.2659 7.21082C26.2373 10.2804 27 14.5081 27 20C27 20.5523 26.5523 21 26 21H22.5V30C22.5 30.5523 22.0523 31 21.5 31C20.9477 31 20.5 30.5523 20.5 30V2.00003C20.5 1.59557 20.7436 1.23093 21.1173 1.07615ZM22.5 19H24.9912C24.9053 14.1836 24.2051 10.4875 23.3591 7.81424C23.0807 6.93457 22.7885 6.1715 22.5 5.51895V19Z" fill="white"/>
<path fill-rule="evenodd" clip-rule="evenodd" d="M8.5 1C9.05228 1 9.5 1.44772 9.5 2V30C9.5 30.5523 9.05228 31 8.5 31C7.94772 31 7.5 30.5523 7.5 30V2C7.5 1.44772 7.94772 1 8.5 1Z" fill="white"/>
<path fill-rule="evenodd" clip-rule="evenodd" d="M4 1C4.55228 1 5 1.44772 5 2V7.5C5 8.05686 5.19203 8.81518 5.70088 9.41656C6.18001 9.98281 7.01446 10.5 8.49993 10.5C9.05221 10.5 9.49993 10.9477 9.49993 11.5C9.49993 12.0523 9.05221 12.5 8.49993 12.5C6.48547 12.5 5.06995 11.7672 4.1741 10.7084C3.30797 9.68482 3 8.44314 3 7.5V2C3 1.44772 3.44772 1 4 1Z" fill="white"/>
<path fill-rule="evenodd" clip-rule="evenodd" d="M13 1C12.4477 1 12 1.44772 12 2V7.5C12 8.05686 11.808 8.81518 11.2991 9.41656C10.82 9.98281 9.9854 10.5 8.49993 10.5C7.94765 10.5 7.50007 10.9477 7.50007 11.5C7.50007 12.0523 7.94765 12.5 8.49993 12.5C10.5144 12.5 11.93 11.7672 12.8259 10.7084C13.692 9.68482 14 8.44314 14 7.5V2C14 1.44772 13.5523 1 13 1Z" fill="white"/>
</svg>

<svg id="alarm" viewBox="0 0 30 32">
<path d="M8.12057 1C7.0538 1 7.0538 2.5831 8.12057 2.5831H14.7878V4.18731C7.96055 4.62002 2.56272 10.4142 2.56272 17.4854C2.56272 21.4959 4.31222 25.1159 7.07514 27.5539C7.55518 27.976 7.61919 28.7254 7.18181 29.1897L5.64567 30.7412C4.89894 31.4272 6.00837 32.4931 6.68043 31.7438L8.68595 29.7069C9.03798 29.3692 9.5607 29.2847 9.99807 29.4958C11.7228 30.3397 13.6191 30.784 15.5432 30.795C17.4673 30.8059 19.3687 30.3833 21.1031 29.5591C21.5298 29.348 22.0632 29.4325 22.4045 29.7702L24.3461 31.7438C25.0288 32.377 26.0102 31.4272 25.3915 30.7412L23.9407 29.2636C23.4926 28.8098 23.5567 28.0605 24.0474 27.6277C25.5031 26.3585 26.6674 24.7959 27.4623 23.0447C28.2571 21.2936 28.6641 19.3944 28.6558 17.4748C28.6558 10.4036 23.226 4.59891 16.388 4.18731V2.5831H23.0553C24.122 2.5831 24.122 1 23.0553 1H8.12057ZM4.00285 17.4748C4.00285 10.9419 9.198 5.65431 15.6093 5.65431C22.0098 5.65431 27.205 10.9419 27.205 17.4748C27.205 24.0183 22.0098 29.3164 15.6093 29.3164C9.20867 29.3164 4.00285 24.0183 4.00285 17.4748ZM14.7985 9.37988C14.7985 8.28226 16.4627 8.28226 16.4627 9.37988V18.0131C16.4627 18.237 16.3728 18.4517 16.2127 18.6101C16.0527 18.7684 15.8356 18.8574 15.6093 18.8574C15.3961 18.8574 15.1915 18.7743 15.0397 18.6262C14.888 18.478 14.8013 18.2767 14.7985 18.0658V9.37988ZM9.80605 11.9973C10.1144 11.9973 10.4102 11.8761 10.6283 11.6603C10.8463 11.4446 10.9688 11.152 10.9688 10.8469C10.9688 10.5418 10.8463 10.2492 10.6283 10.0334C10.4102 9.8177 10.1144 9.6965 9.80605 9.6965C9.51825 9.72386 9.25108 9.85633 9.05666 10.0681C8.86224 10.2798 8.75453 10.5556 8.75453 10.8416C8.75453 11.1277 8.86224 11.4034 9.05666 11.6152C9.25108 11.8269 9.51825 11.9593 9.80605 11.9867V11.9973ZM21.4018 11.9973C21.7102 11.9973 22.0059 11.8761 22.224 11.6603C22.4421 11.4446 22.5646 11.152 22.5646 10.8469C22.5646 10.5418 22.4421 10.2492 22.224 10.0334C22.0059 9.8177 21.7102 9.6965 21.4018 9.6965C21.114 9.72386 20.8468 9.85633 20.6524 10.0681C20.458 10.2798 20.3503 10.5556 20.3503 10.8416C20.3503 11.1277 20.458 11.4034 20.6524 11.6152C20.8468 11.8269 21.114 11.9593 21.4018 11.9867V11.9973ZM10.9688 24.5882C10.9688 26.1185 8.64328 26.1185 8.64328 24.5882C8.64328 23.0579 10.9688 23.0579 10.9688 24.5882ZM15.6093 28.0288C15.7706 28.0441 15.9334 28.0259 16.0872 27.9754C16.241 27.9248 16.3824 27.843 16.5024 27.7352C16.6223 27.6273 16.7182 27.4959 16.7838 27.3493C16.8494 27.2026 16.8833 27.044 16.8833 26.8837C16.8833 26.7233 16.8494 26.5648 16.7838 26.4181C16.7182 26.2715 16.6223 26.14 16.5024 26.0322C16.3824 25.9244 16.241 25.8426 16.0872 25.792C15.9334 25.7414 15.7706 25.7232 15.6093 25.7386C15.3215 25.7659 15.0543 25.8984 14.8599 26.1101C14.6654 26.3219 14.5577 26.5976 14.5577 26.8837C14.5577 27.1697 14.6654 27.4455 14.8599 27.6572C15.0543 27.869 15.3215 28.0014 15.6093 28.0288ZM7.49117 17.6437C7.50668 17.8033 7.48829 17.9643 7.43717 18.1165C7.38606 18.2687 7.30336 18.4086 7.19437 18.5273C7.08539 18.646 6.95252 18.7408 6.80431 18.8057C6.6561 18.8706 6.49581 18.9041 6.33373 18.9041C6.17166 18.9041 6.01137 18.8706 5.86316 18.8057C5.71494 18.7408 5.58208 18.646 5.4731 18.5273C5.36411 18.4086 5.28141 18.2687 5.23029 18.1165C5.17918 17.9643 5.16079 17.8033 5.17629 17.6437C5.20396 17.3589 5.33785 17.0946 5.55185 16.9023C5.76585 16.7099 6.04461 16.6033 6.33373 16.6033C6.62286 16.6033 6.90162 16.7099 7.11562 16.9023C7.32962 17.0946 7.46351 17.3589 7.49117 17.6437ZM24.8794 18.794C25.0408 18.8094 25.2036 18.7912 25.3574 18.7406C25.5112 18.6901 25.6526 18.6082 25.7726 18.5004C25.8925 18.3926 25.9884 18.2611 26.054 18.1145C26.1196 17.9679 26.1535 17.8093 26.1535 17.6489C26.1535 17.4886 26.1196 17.33 26.054 17.1834C25.9884 17.0367 25.8925 16.9053 25.7726 16.7975C25.6526 16.6896 25.5112 16.6078 25.3574 16.5573C25.2036 16.5067 25.0408 16.4885 24.8794 16.5038C24.5916 16.5312 24.3245 16.6637 24.13 16.8754C23.9356 17.0871 23.8279 17.3629 23.8279 17.6489C23.8279 17.935 23.9356 18.2108 24.13 18.4225C24.3245 18.6342 24.5916 18.7667 24.8794 18.794ZM22.5646 24.5987C22.5646 26.1185 20.239 26.1185 20.239 24.5882C20.239 23.0579 22.5646 23.0579 22.5646 24.5882V24.5987Z" fill="white"/>
</svg>

<svg id="slider-button" viewBox="0 0 24 18">
<path d="M8 0L0 9L8 18V0Z"/>
<path d="M24 9L16 0V18L24 9Z"/>
</svg>

<svg id="icon-tick" viewBox="0 0 24 19">
<path d="M9 15.499L1.4 6.90101L0 8.48485L9 18.6667L24 1.69697L22.6 0L9 15.499Z" fill="#68B738"/>
</svg>

<svg id="icon-email" viewBox="0 0 20 20" fill="none">
<path d="M1.50034 8.5V16.5H18.5041V8.5M1.50034 3.5H18.5041V5.5L10.0022 11.5L1.50034 5.5V3.5Z" stroke="black" stroke-linecap="round" stroke-linejoin="round"/>
</svg>

<svg id="icon-email-focus" viewBox="0 0 20 20" fill="none">
<path d="M1.50034 8.5V16.5H18.5041V8.5M1.50034 3.5H18.5041V5.5L10.0022 11.5L1.50034 5.5V3.5Z" stroke="#68b738" stroke-linecap="round" stroke-linejoin="round"/>
</svg>

<svg id="icon-email-error" viewBox="0 0 20 20" fill="none">
<path d="M1.50034 8.5V16.5H18.5041V8.5M1.50034 3.5H18.5041V5.5L10.0022 11.5L1.50034 5.5V3.5Z" stroke="#ff8282" stroke-linecap="round" stroke-linejoin="round"/>
</svg>

<svg id="icon-phone" viewBox="0 0 20 20" fill="white">
<path d="M10.0022 10H18.5041M18.5041 10L16.0036 7.5M18.5041 10L16.0036 12.5M8.50191 2.5V7.5H5.50124V12.5H8.50191V17.5H6.00135C4.50102 17.5 3.50079 16.5 3.50079 15V5C3.50079 3.5 4.50102 2.5 6.00135 2.5H8.50191Z" stroke="black" stroke-linecap="round" stroke-linejoin="round"/>
</svg>

<svg id="icon-phone-focus" viewBox="0 0 20 20" fill="white">
<path d="M10.0022 10H18.5041M18.5041 10L16.0036 7.5M18.5041 10L16.0036 12.5M8.50191 2.5V7.5H5.50124V12.5H8.50191V17.5H6.00135C4.50102 17.5 3.50079 16.5 3.50079 15V5C3.50079 3.5 4.50102 2.5 6.00135 2.5H8.50191Z" stroke="#68b738" stroke-linecap="round" stroke-linejoin="round"/>
</svg>

<svg id="icon-phone-error" viewBox="0 0 20 20" fill="white">
<path d="M10.0022 10H18.5041M18.5041 10L16.0036 7.5M18.5041 10L16.0036 12.5M8.50191 2.5V7.5H5.50124V12.5H8.50191V17.5H6.00135C4.50102 17.5 3.50079 16.5 3.50079 15V5C3.50079 3.5 4.50102 2.5 6.00135 2.5H8.50191Z" stroke="#ff8282" stroke-linecap="round" stroke-linejoin="round"/>
</svg>

<svg id="gift" viewBox="0 0 58 62" fill="none">
<path d="M54.0156 28.6325H4.03096C2.27657 28.6325 0.849411 27.2144 0.849411 25.4709V15.9989C0.849411 14.2554 2.27657 12.8367 4.03096 12.8367H54.0149C55.7687 12.8367 57.1953 14.2554 57.1953 15.9989V25.4715C57.1959 27.2144 55.7693 28.6325 54.0156 28.6325ZM4.03096 15.2598C3.62755 15.2598 3.28691 15.5984 3.28691 15.9989V25.4715C3.28691 25.8786 3.62085 26.21 4.03096 26.21H54.0149C54.4244 26.21 54.7578 25.8786 54.7578 25.4715V15.9989C54.7578 15.5978 54.4171 15.2598 54.0149 15.2598H4.03096Z" fill="white"/>
<path d="M47.0447 61.0821H10.999C7.62182 61.0821 4.87415 58.3512 4.87415 54.9933V27.421C4.87415 26.7523 5.42015 26.2095 6.0929 26.2095C6.76565 26.2095 7.31165 26.7523 7.31165 27.421V54.9933C7.31165 57.0148 8.9661 58.6589 10.999 58.6589H47.0447C49.077 58.6589 50.7308 57.0148 50.7308 54.9933V27.421C50.7308 26.7523 51.2768 26.2095 51.9496 26.2095C52.6223 26.2095 53.1683 26.7523 53.1683 27.421V54.9933C53.1683 58.3512 50.4213 61.0821 47.0447 61.0821Z" fill="white"/>
<path d="M29.0225 61.0821C28.3498 61.0821 27.8038 60.5399 27.8038 59.8705V27.421C27.8038 26.7523 28.3498 26.2095 29.0225 26.2095C29.6953 26.2095 30.2413 26.7523 30.2413 27.421V59.8699C30.2413 60.5399 29.6959 61.0821 29.0225 61.0821Z" fill="white"/>
<path d="M13.8113 15.2556C9.99661 13.2008 8.57311 8.44415 10.6383 4.65133C12.7022 0.860334 17.4864 -0.555385 21.303 1.4958C27.117 4.6265 30.2565 13.3607 30.3869 13.7308L28.0877 14.5347C28.0585 14.4523 25.1256 6.30997 20.1433 3.62695C17.5078 2.21063 14.2062 3.18836 12.7821 5.80475C11.3567 8.42356 12.339 11.7069 14.9734 13.1251L13.8113 15.2556Z" fill="white"/>
<path d="M44.2313 15.2556L43.071 13.1244C44.3477 12.4369 45.2782 11.2974 45.6926 9.91559C46.1063 8.53318 45.9534 7.07324 45.2617 5.80534C44.5719 4.53622 43.4263 3.61179 42.0363 3.20046C40.6457 2.78913 39.1783 2.94058 37.9023 3.62694C32.9201 6.30935 29.9871 14.4517 29.9579 14.5341L27.6587 13.7302C27.7891 13.3601 30.928 4.62587 36.7421 1.49578C38.5897 0.501085 40.7182 0.281792 42.7316 0.877884C44.7468 1.47337 46.4061 2.81397 47.4061 4.65132C48.4073 6.48806 48.6285 8.60285 48.0289 10.6062C47.4287 12.6089 46.0801 14.2597 44.2313 15.2556Z" fill="white"/>
<path d="M51.9496 44.8567H6.0929C5.42015 44.8567 4.87415 44.3142 4.87415 43.6456C4.87415 42.9771 5.42015 42.4346 6.0929 42.4346H51.9496C52.6223 42.4346 53.1683 42.9771 53.1683 43.6456C53.1683 44.3142 52.6229 44.8567 51.9496 44.8567Z" fill="white"/>
</svg>

<svg id="menu-opened" viewBox="0 0 20 20" fill="none">
<line y1="-0.75" x2="24.7577" y2="-0.75" transform="matrix(0.686589 -0.727046 0.686589 0.727046 2.00171 20)" stroke="black" stroke-width="1.5"/>
<line y1="-0.75" x2="24.7577" y2="-0.75" transform="matrix(0.686589 0.727046 -0.686589 0.727046 1 2)" stroke="black" stroke-width="1.5"/>
</svg>

</svg>
