<svg viewBox="0 0 30 32" xmlns="http://www.w3.org/2000/svg">
<path d="M8.12057 1C7.0538 1 7.0538 2.5831 8.12057 2.5831H14.7878V4.18731C7.96055 4.62002 2.56272 10.4142 2.56272 17.4854C2.56272 21.4959 4.31222 25.1159 7.07514 27.5539C7.55518 27.976 7.61919 28.7254 7.18181 29.1897L5.64567 30.7412C4.89894 31.4272 6.00837 32.4931 6.68043 31.7438L8.68595 29.7069C9.03798 29.3692 9.5607 29.2847 9.99807 29.4958C11.7228 30.3397 13.6191 30.784 15.5432 30.795C17.4673 30.8059 19.3687 30.3833 21.1031 29.5591C21.5298 29.348 22.0632 29.4325 22.4045 29.7702L24.3461 31.7438C25.0288 32.377 26.0102 31.4272 25.3915 30.7412L23.9407 29.2636C23.4926 28.8098 23.5567 28.0605 24.0474 27.6277C25.5031 26.3585 26.6674 24.7959 27.4623 23.0447C28.2571 21.2936 28.6641 19.3944 28.6558 17.4748C28.6558 10.4036 23.226 4.59891 16.388 4.18731V2.5831H23.0553C24.122 2.5831 24.122 1 23.0553 1H8.12057ZM4.00285 17.4748C4.00285 10.9419 9.198 5.65431 15.6093 5.65431C22.0098 5.65431 27.205 10.9419 27.205 17.4748C27.205 24.0183 22.0098 29.3164 15.6093 29.3164C9.20867 29.3164 4.00285 24.0183 4.00285 17.4748ZM14.7985 9.37988C14.7985 8.28226 16.4627 8.28226 16.4627 9.37988V18.0131C16.4627 18.237 16.3728 18.4517 16.2127 18.6101C16.0527 18.7684 15.8356 18.8574 15.6093 18.8574C15.3961 18.8574 15.1915 18.7743 15.0397 18.6262C14.888 18.478 14.8013 18.2767 14.7985 18.0658V9.37988ZM9.80605 11.9973C10.1144 11.9973 10.4102 11.8761 10.6283 11.6603C10.8463 11.4446 10.9688 11.152 10.9688 10.8469C10.9688 10.5418 10.8463 10.2492 10.6283 10.0334C10.4102 9.8177 10.1144 9.6965 9.80605 9.6965C9.51825 9.72386 9.25108 9.85633 9.05666 10.0681C8.86224 10.2798 8.75453 10.5556 8.75453 10.8416C8.75453 11.1277 8.86224 11.4034 9.05666 11.6152C9.25108 11.8269 9.51825 11.9593 9.80605 11.9867V11.9973ZM21.4018 11.9973C21.7102 11.9973 22.0059 11.8761 22.224 11.6603C22.4421 11.4446 22.5646 11.152 22.5646 10.8469C22.5646 10.5418 22.4421 10.2492 22.224 10.0334C22.0059 9.8177 21.7102 9.6965 21.4018 9.6965C21.114 9.72386 20.8468 9.85633 20.6524 10.0681C20.458 10.2798 20.3503 10.5556 20.3503 10.8416C20.3503 11.1277 20.458 11.4034 20.6524 11.6152C20.8468 11.8269 21.114 11.9593 21.4018 11.9867V11.9973ZM10.9688 24.5882C10.9688 26.1185 8.64328 26.1185 8.64328 24.5882C8.64328 23.0579 10.9688 23.0579 10.9688 24.5882ZM15.6093 28.0288C15.7706 28.0441 15.9334 28.0259 16.0872 27.9754C16.241 27.9248 16.3824 27.843 16.5024 27.7352C16.6223 27.6273 16.7182 27.4959 16.7838 27.3493C16.8494 27.2026 16.8833 27.044 16.8833 26.8837C16.8833 26.7233 16.8494 26.5648 16.7838 26.4181C16.7182 26.2715 16.6223 26.14 16.5024 26.0322C16.3824 25.9244 16.241 25.8426 16.0872 25.792C15.9334 25.7414 15.7706 25.7232 15.6093 25.7386C15.3215 25.7659 15.0543 25.8984 14.8599 26.1101C14.6654 26.3219 14.5577 26.5976 14.5577 26.8837C14.5577 27.1697 14.6654 27.4455 14.8599 27.6572C15.0543 27.869 15.3215 28.0014 15.6093 28.0288ZM7.49117 17.6437C7.50668 17.8033 7.48829 17.9643 7.43717 18.1165C7.38606 18.2687 7.30336 18.4086 7.19437 18.5273C7.08539 18.646 6.95252 18.7408 6.80431 18.8057C6.6561 18.8706 6.49581 18.9041 6.33373 18.9041C6.17166 18.9041 6.01137 18.8706 5.86316 18.8057C5.71494 18.7408 5.58208 18.646 5.4731 18.5273C5.36411 18.4086 5.28141 18.2687 5.23029 18.1165C5.17918 17.9643 5.16079 17.8033 5.17629 17.6437C5.20396 17.3589 5.33785 17.0946 5.55185 16.9023C5.76585 16.7099 6.04461 16.6033 6.33373 16.6033C6.62286 16.6033 6.90162 16.7099 7.11562 16.9023C7.32962 17.0946 7.46351 17.3589 7.49117 17.6437ZM24.8794 18.794C25.0408 18.8094 25.2036 18.7912 25.3574 18.7406C25.5112 18.6901 25.6526 18.6082 25.7726 18.5004C25.8925 18.3926 25.9884 18.2611 26.054 18.1145C26.1196 17.9679 26.1535 17.8093 26.1535 17.6489C26.1535 17.4886 26.1196 17.33 26.054 17.1834C25.9884 17.0367 25.8925 16.9053 25.7726 16.7975C25.6526 16.6896 25.5112 16.6078 25.3574 16.5573C25.2036 16.5067 25.0408 16.4885 24.8794 16.5038C24.5916 16.5312 24.3245 16.6637 24.13 16.8754C23.9356 17.0871 23.8279 17.3629 23.8279 17.6489C23.8279 17.935 23.9356 18.2108 24.13 18.4225C24.3245 18.6342 24.5916 18.7667 24.8794 18.794ZM22.5646 24.5987C22.5646 26.1185 20.239 26.1185 20.239 24.5882C20.239 23.0579 22.5646 23.0579 22.5646 24.5882V24.5987Z" fill="white"/>
</svg>
