<svg viewBox="0 0 30 32" xmlns="http://www.w3.org/2000/svg">
<path fill-rule="evenodd" clip-rule="evenodd" d="M21.1173 1.07615C21.491 0.921369 21.9211 1.00692 22.2071 1.29292C23.1156 2.20142 24.3038 4.17065 25.2659 7.21082C26.2373 10.2804 27 14.5081 27 20C27 20.5523 26.5523 21 26 21H22.5V30C22.5 30.5523 22.0523 31 21.5 31C20.9477 31 20.5 30.5523 20.5 30V2.00003C20.5 1.59557 20.7436 1.23093 21.1173 1.07615ZM22.5 19H24.9912C24.9053 14.1836 24.2051 10.4875 23.3591 7.81424C23.0807 6.93457 22.7885 6.1715 22.5 5.51895V19Z" fill="white"/>
<path fill-rule="evenodd" clip-rule="evenodd" d="M8.5 1C9.05228 1 9.5 1.44772 9.5 2V30C9.5 30.5523 9.05228 31 8.5 31C7.94772 31 7.5 30.5523 7.5 30V2C7.5 1.44772 7.94772 1 8.5 1Z" fill="white"/>
<path fill-rule="evenodd" clip-rule="evenodd" d="M4 1C4.55228 1 5 1.44772 5 2V7.5C5 8.05686 5.19203 8.81518 5.70088 9.41656C6.18001 9.98281 7.01446 10.5 8.49993 10.5C9.05221 10.5 9.49993 10.9477 9.49993 11.5C9.49993 12.0523 9.05221 12.5 8.49993 12.5C6.48547 12.5 5.06995 11.7672 4.1741 10.7084C3.30797 9.68482 3 8.44314 3 7.5V2C3 1.44772 3.44772 1 4 1Z" fill="white"/>
<path fill-rule="evenodd" clip-rule="evenodd" d="M13 1C12.4477 1 12 1.44772 12 2V7.5C12 8.05686 11.808 8.81518 11.2991 9.41656C10.82 9.98281 9.9854 10.5 8.49993 10.5C7.94765 10.5 7.50007 10.9477 7.50007 11.5C7.50007 12.0523 7.94765 12.5 8.49993 12.5C10.5144 12.5 11.93 11.7672 12.8259 10.7084C13.692 9.68482 14 8.44314 14 7.5V2C14 1.44772 13.5523 1 13 1Z" fill="white"/>
</svg>
