<svg viewBox="0 0 30 32" xmlns="http://www.w3.org/2000/svg">
<path d="M13.375 2C11.7437 2 10.475 3.35937 10.475 5.08125C10.475 6.80312 11.7437 8.1625 13.375 8.1625C15.0063 8.1625 16.275 6.80312 16.275 5.08125C16.275 3.35937 15.0063 2 13.375 2ZM13.375 3.17812C14.3719 3.17812 15.0969 4.02094 15.0969 5.08125C15.0969 6.07812 14.3084 6.98438 13.375 6.98438C12.3781 6.98438 11.6531 6.14156 11.6531 5.08125C11.6531 4.08437 12.4325 3.17812 13.375 3.17812ZM2.5 26.7406C2.5 27.9188 2.90781 28.9156 3.85938 29.7313C4.85625 30.5831 6.03438 30.5106 6.03438 30.5106H25.0656C25.845 30.5106 26.8781 30.13 27.6937 29.0606C28.5366 28.0638 28.4822 26.7044 28.4822 26.7044V9.48563C28.4822 9.05063 28.3734 8.8875 27.7391 8.8875C27.1047 8.8875 27.0503 9.15938 27.0503 9.47656V26.6953C27.0322 26.9944 26.9778 27.7828 26.3072 28.4172C25.5731 29.0425 24.8572 28.9609 24.8572 28.9609C24.8572 28.9609 6.73219 28.9609 5.82594 28.9338C5.48156 28.8703 4.91969 28.7434 4.37594 28.0275C3.86844 27.3025 3.96812 26.3962 3.96812 26.3962V9.1775C3.96812 8.71531 3.7325 8.54313 3.24313 8.54313C2.75375 8.54313 2.5 8.71531 2.5 9.12313V26.7406ZM18.8125 10.4281C17.725 10.6637 16.6375 10.8088 14.5531 12.7844C12.4688 14.7781 10.9281 14.6875 9.3875 14.5969C7.84688 14.5063 6.21563 13.0563 5.94375 12.6938C5.60844 12.3403 5.0375 12.5759 4.85625 12.8116C4.70219 13.0472 4.70219 13.455 4.965 13.8084C6.23375 14.9866 7.41188 15.8928 9.6775 16.0741C11.9431 16.2916 14.1181 15.2675 15.5681 13.8084C17.0181 12.3584 17.7431 12.0866 18.8306 11.9053C21.4587 11.4884 22.9994 12.5216 23.9056 13.1741C24.9025 14.2616 25.1744 13.9534 25.4462 13.6453C25.99 12.9294 25.2197 12.3766 24.3588 11.7422C22.5463 10.5641 20.8244 10.1109 18.8306 10.4734L18.8125 10.4281ZM9.75 17.5875C8.57188 17.5875 7.66562 18.5844 7.66562 19.8531C7.66562 21.1219 8.57188 22.1188 9.75 22.1188C10.9281 22.1188 11.8344 21.1219 11.8344 19.8531C11.8344 18.5844 10.9281 17.5875 9.75 17.5875ZM21.5312 18.3669C19.9906 18.3669 18.7219 19.7262 18.7219 21.3575C18.7219 22.9888 19.9906 24.3481 21.5312 24.3481C23.0719 24.3481 24.3406 22.9888 24.3406 21.3575C24.3406 19.7262 23.0719 18.3669 21.5312 18.3669ZM21.5312 19.8169C22.3288 19.8169 22.9813 20.5147 22.9813 21.3575C22.9813 22.2184 22.3288 22.8981 21.5312 22.8981C20.7337 22.8981 20.0812 22.2003 20.0812 21.3575C20.0812 20.4966 20.7337 19.8169 21.5312 19.8169Z" fill="white"/>
</svg>
